<svg xmlns="http://www.w3.org/2000/svg" viewBox="0 0 120 86"><ellipse cx="60" cy="75" rx="57" ry="10" fill="#2c2620"/><path d="M30 14c0-4 3-6 6-6h48c3 0 6 2 6 6l-2 60c-10 4-46 4-56 0z" fill="#3d352c"/><ellipse cx="60" cy="10" rx="29" ry="5" fill="#51473b"/><path d="M31 56c12 3 46 3 58 0l-.4 10c-12 3-45 3-57 0z" fill="#b04a6b"/><path d="M37 17v24" stroke="#fff" stroke-opacity=".13" stroke-width="5" stroke-linecap="round"/><path d="M84 61c6-12 16-16 24-15-3 9-12 15-24 15z" fill="#5b8a3c"/><path d="M84 61c8-6 14-10 22-13" stroke="#3f6a2a" stroke-width="1.6" fill="none" stroke-linecap="round"/><path d="M85 60c-2-10 1-18 7-23 3 8 0 17-7 23z" fill="#76a352"/></svg>
